<svg id="Component_22_1" data-name="Component 22 – 1" xmlns="http://www.w3.org/2000/svg" width="56" height="56" viewBox="0 0 56 56">
  <rect id="Rectangle_27" data-name="Rectangle 27" width="56" height="56" rx="8" fill="#1e2026"/>
  <g id="user" transform="translate(15.631 13.174)">
    <path id="Path_36" data-name="Path 36" d="M94.173,14.283a6.91,6.91,0,0,0,5.05-2.092,6.91,6.91,0,0,0,2.092-5.05,6.911,6.911,0,0,0-2.092-5.05,7.14,7.14,0,0,0-10.1,0,6.911,6.911,0,0,0-2.092,5.049,6.91,6.91,0,0,0,2.093,5.05A6.912,6.912,0,0,0,94.173,14.283Zm0,0" transform="translate(-81.991)" fill="#797979"/>
    <path id="Path_37" data-name="Path 37" d="M24.679,255.794a17.639,17.639,0,0,0-.24-1.874,14.761,14.761,0,0,0-.461-1.884,9.305,9.305,0,0,0-.774-1.757,6.629,6.629,0,0,0-1.168-1.522,5.149,5.149,0,0,0-1.677-1.054,5.8,5.8,0,0,0-2.141-.388,2.174,2.174,0,0,0-1.161.492c-.348.227-.755.489-1.209.78a6.929,6.929,0,0,1-1.565.689,6.075,6.075,0,0,1-3.827,0,6.912,6.912,0,0,1-1.563-.689c-.45-.288-.857-.55-1.21-.78a2.171,2.171,0,0,0-1.16-.492,5.79,5.79,0,0,0-2.141.388A5.144,5.144,0,0,0,2.7,248.758a6.631,6.631,0,0,0-1.167,1.522,9.323,9.323,0,0,0-.774,1.757A14.8,14.8,0,0,0,.3,253.921a17.579,17.579,0,0,0-.24,1.874C.02,256.362,0,256.951,0,257.546a4.924,4.924,0,0,0,1.462,3.725,5.264,5.264,0,0,0,3.768,1.375H19.508a5.263,5.263,0,0,0,3.768-1.375,4.921,4.921,0,0,0,1.463-3.725C24.738,256.948,24.718,256.359,24.679,255.794Zm0,0" transform="translate(0 -232.993)" fill="#797979"/>
  </g>
</svg>
