<svg id="Component_23_1" data-name="Component 23 – 1" xmlns="http://www.w3.org/2000/svg" width="160" height="160" viewBox="0 0 160 160">
  <rect id="Rectangle_28" data-name="Rectangle 28" width="160" height="160" rx="8" fill="#1e2026"/>
  <g id="album" transform="translate(40.031 40.031)">
    <path id="Path_39" data-name="Path 39" d="M77.44,128H2.5A2.5,2.5,0,0,0,0,130.5v54.958a2.5,2.5,0,0,0,2.5,2.5H77.44a2.5,2.5,0,0,0,2.5-2.5V130.5A2.5,2.5,0,0,0,77.44,128ZM52.46,152.671a2.5,2.5,0,0,1-2.5-2.5c0-3.337-2.733-5.246-5-6.25v26.545c0,4.2-4.387,7.494-9.992,7.494s-9.992-3.292-9.992-7.494,4.387-7.494,9.992-7.494a12.73,12.73,0,0,1,5,1.009V140.49a2.5,2.5,0,0,1,2.963-2.453c4.162.779,12.026,4.322,12.026,12.136A2.5,2.5,0,0,1,52.46,152.671Z" transform="translate(0 -108.015)" fill="#7c7c7c"/>
    <path id="Path_40" data-name="Path 40" d="M123.954,66.5a2.5,2.5,0,0,0-2.5-2.5H66.5A2.5,2.5,0,0,0,64,66.5V69h59.954Z" transform="translate(-54.008 -54.008)" fill="#7c7c7c"/>
    <path id="Path_41" data-name="Path 41" d="M167.969,2.5a2.5,2.5,0,0,0-2.5-2.5H130.5A2.5,2.5,0,0,0,128,2.5V5h39.969Z" transform="translate(-108.015)" fill="#7c7c7c"/>
  </g>
</svg>
